# xmcd
#
# Track frame offsets: 
#        150
#        18752
#        36309
#        49742
#        63508
#        74391
#        89926
#        103176
#        115898
#        128661
#        142024
#        159539
#
# Disc length: 2298 seconds
#
# Revision: 0
# Processed by: cddbd v1.5.2PL0 Copyright (c) Steve Scherf et al.
# Submitted via: ExactAudioCopy v0.99pb3
#
DISCID=af08f80c
DTITLE=Duane Schurb - Best Of Duane Schurb Vol.2
DYEAR=2007
DGENRE=Pop
TTITLE0=Nothing But Lies
TTITLE1=My Love Is True
TTITLE2=I Love Swamp Pop Music
TTITLE3=The Door Is Still Closed
TTITLE4=Keep On Keepin On
TTITLE5=The Man Is A Legend
TTITLE6=We Go Together
TTITLE7=I Love Jamaica Music
TTITLE8=Lost Love
TTITLE9=Straighten Up
TTITLE10=Never Hear From You
TTITLE11=Ring On My Finger
EXTD=
EXTT0=
EXTT1=
EXTT2=
EXTT3=
EXTT4=
EXTT5=
EXTT6=
EXTT7=
EXTT8=
EXTT9=
EXTT10=
EXTT11=
PLAYORDER=
